<svg version="1" xmlns="http://www.w3.org/2000/svg" width="180" height="180" viewBox="0 0 135.000000 135.000000"><path d="M55.5 1C42.3 3.2 38.9 4.3 30 9.9c-6.3 3.9-19 15.8-19 17.8 0 .7-.5 1.3-1.1 1.3-.5 0-.8.4-.5.9.4.5.3 1.1-.1 1.3-.5.1-2 2.8-3.5 5.8C2.3 44.2-.1 58.3.6 68c.3 4.1.7 9 .8 10.9.1 1.9.8 3.7 1.4 3.9.7.2 1 .8.6 1.3-.3.5.6 3 2 5.5 1.4 2.6 2.4 5 2.1 5.4-.3.4.2 1.3 1.1 2.1 2.8 2.3 3.7 4.9 2.2 6.7-1.1 1.5-1.1 1.5.2.6 1.1-.8 2-.5 3.7 1.3 1.2 1.3 1.9 2.3 1.5 2.3-.3 0 .4.7 1.6 1.6 1.2.8 1.9 2 1.6 2.6-.4.6-.3.8.3.5.5-.4 2.3.7 3.8 2.3 1.6 1.7 3.5 3 4.2 3 .8 0 1.1.5.7 1.2-.4.7-.3.8.4.4s1.2-.2 1.2.3c0 .6.7 1.1 1.6 1.1.9 0 1.2.5.8 1.2-.5.8-.2.9.9.5 1.2-.4 1.7-.1 1.7.9s.6 1.4 1.5 1c.8-.3 2 .1 2.7.8.7.7 1.9 1.1 2.7.8.8-.3 1.1 0 .7.6-.3.5 0 .9.7.9 1.5-.2 9.7 2.1 11.7 3.2 2.4 1.3 25.2 1.2 24.4-.1-.4-.7-.3-.8.4-.4.6.4 3.2 0 5.8-.9 2.5-.8 5-1.2 5.6-.9.5.3 1.6-.3 2.4-1.5 1.5-2.1 4.1-3.1 2.9-1.1-.4.6.5.5 1.9-.2 1.4-.6 2.6-1.5 2.6-2.1 0-.5.7-.6 1.6-.3.8.3 1.3.2 1-.2-.3-.5.4-1.6 1.5-2.5 1-.9 1.9-1.4 1.9-1.1 0 .4.6.1 1.3-.5.8-.6 1.7-.8 2-.4.4.3.7 0 .7-.7 0-1.5 4-5.5 5.8-5.6 2.7-.2 3.2-.5 3.2-1.5 0-.8-.6-.7-1.7.2-3.2 2.6-.6-.8 6.4-8.7 1.2-1.3 2-3.1 1.7-3.9-.4-.8-.2-1.5.4-1.5.9 0 2.5-3.6 3.9-8.5.1-.6.9-3.5 1.8-6.5 1.9-6.9 2-23.1.1-30.4-2.8-10.7-11-25.7-16.4-30-1.3-1.1-3.2-2.7-4.1-3.6C99.9 5.7 74-2.1 55.5 1zM44.8 11.5c-.3.3-1.9 1-3.6 1.4-2.5.8-3 .6-2.5-.5.3-.8 1.9-1.4 3.6-1.4 1.7 0 2.8.2 2.5.5zM75 16c0 .5-.2 1-.4 1-.3 0-.8-.5-1.1-1-.3-.6-.1-1 .4-1 .6 0 1.1.4 1.1 1zm-7 1c1.3.9 1.3 1 0 1-.8 0-2.2-.5-3-1-1.3-.9-1.3-1 0-1 .8 0 2.2.5 3 1zm4 1c0 .5-.2 1-.4 1-.3 0-.8-.5-1.1-1-.3-.6-.1-1 .4-1 .6 0 1.1.4 1.1 1zm-42.9 3.1c.8 1.7.8 2.8-.2 4.8-1.6 2.9-7.2 8.6-9.4 9.5-.8.3-1.5 1.2-1.5 1.9 0 .8-.9 2.2-2 3.2-2 1.8-2.9 6.2-1 5 .6-.3 1-.2 1 .3s1.1.7 2.5.4c2.4-.4 2.6-.2 2.2 3-.2 1.9-1.3 4.6-2.5 5.9-1.3 1.3-2 2.9-1.7 3.7 1.4 3.6 1.7 6.5.8 5.9-1.1-.7-2.8 2.2-1.8 3.1.3.3.5 0 .5-.6 0-.7.5-1.2 1-1.2 1.6 0 1.1 1.7-.7 2.5-1 .3-1.9.1-2.1-.5-.2-.6-1.1-1.7-1.9-2.5-1-1-1.3-2.4-.9-4.1.7-2.7 0-6.4-1.2-6.4-.4 0-1.3 1.4-2.1 3.2l-1.4 3.1-1.8-2.1c-1.7-2.2-1.7-2-1.7 4.9 0 3.9-.3 7.3-.6 7.6-1 1-.7-12.7.5-19.6 1-6.4 6.8-20.7 9.2-22.6.7-.6 2.4-2.5 3.9-4.3 1.5-1.8 3.1-3.3 3.5-3.3.4-.1.7-.5.6-1-.2-.4.3-.6 1.1-.3s1.7.1 2.1-.5c1.1-1.8 4.4-1.2 5.6 1zM70 19.9c0 .5-.6 1.2-1.2 1.4-.7.3-.1.5 1.5.4 1.5-.1 2.7-.6 2.8-1.2 0-.5.4-.1.8 1 .9 2.3-2 5-4.5 4.1-1.6-.6-3.4-4.6-2.7-5.9.6-1 3.3-.9 3.3.2zm19.2 1.5c.3-.3.9-.1 1.2.4.3.5-1.5.8-3.9.8-4.8-.1-5.6-.9-2.8-2.5 1.3-.7 2.3-.5 3.4.5.9.8 1.8 1.1 2.1.8zM79 23c1.3.8 1.3 1-.2 1-.9 0-2-.5-2.3-1-.8-1.3.5-1.3 2.5 0zm-38.6 3.5c-.4.8-.8 1.5-1 1.5-.2 0-.4-.7-.4-1.5s.4-1.5 1-1.5c.5 0 .7.7.4 1.5zm5.6 1.1c0 2.3.3 2.5 2.5 2 3-.8 3.2.4.5 2.9-1.9 1.7-2.1 4.9-.5 7.5.4.6-.6 1-2.5 1-1.7 0-2.9-.4-2.5-.9.3-.5.1-1.2-.5-1.6-.5-.3-1-.2-1 .3s-3 .9-6.7.9h-6.8l-.2-3c-.2-2.5.1-2.8 1.7-2.4 1.1.3 2 .1 2-.5s1.4-.8 3.1-.6c2 .3 3.3 0 3.6-.9.3-.7 1-1.3 1.7-1.3.6 0 1.7-1.4 2.4-3 1.7-3.7 3.2-3.9 3.2-.4zM25.6 39.2c-.9 1.4-1.3 2.8-.9 3.2.9.8-1.6 2.6-3.6 2.6-1.1 0-1.1-.4.2-1.8 1-1 1.7-2.2 1.7-2.7 0-1.1 3.2-4.6 3.7-4.1.3.2-.3 1.5-1.1 2.8zM99 41c0 .5-.4 1-1 1-.5 0-1-.5-1-1 0-.6.5-1 1-1 .6 0 1 .4 1 1zm-3 1.4c0 .8.6 1.6 1.3 1.9.6.2.8.8.4 1.3-.5.5-1.5.1-2.3-1-1.6-2.3-1.8-3.6-.4-3.6.6 0 1 .6 1 1.4zm14 2.3c1.1 1 2 2.3 2 3 0 .7.5 1.3 1.1 1.3.5 0 .7.5.4 1.1-.5.6-1.9-.1-3.8-2.1-2.7-2.8-3.2-3-4.2-1.6-1 1.3-1.5 1.3-3 .2-1-.7-1.5-1.8-1.1-2.4 1.1-1.8 6.3-1.4 8.6.5zM70 46c0 .5-.5 1-1.1 1-.5 0-.7-.5-.4-1 .3-.6.8-1 1.1-1 .2 0 .4.4.4 1zm-18 2c0 .5-.5 1-1.1 1-.5 0-.7-.5-.4-1 .3-.6.8-1 1.1-1 .2 0 .4.4.4 1zm49.7.5c0 1.8-1.9 1.5-2.5-.3-.2-.7.3-1.2 1.1-1.2.7 0 1.4.7 1.4 1.5zm-45.9 4.8c.1 1.7.3 4.1.5 5.2.1 1.4-.5 2.1-2.2 2.3-1.4.2-2.1 0-1.7-.6.8-1.3-2-4.2-3.9-4.2-.8 0-1.3.6-1.1 1.2.1.7.1 1-.1.5-.3-.4-1.2-.7-2.1-.7-1.5 0-1.5-.2-.2-1 .8-.5 2.6-1 3.8-1 1.7 0 2.7-.8 3.5-2.9 1.3-3.7 3.1-3.1 3.5 1.2zm71.3-1.4c1.9 1.5 2.1 2.1 1.1 3.3-.6.8-.9 1.8-.5 2.1.3.4.8 5.1.9 10.4.2 5.4.6 11.3 1 13.1.9 4.5-1.9 12.3-7.3 20.4-16.9 25.5-52.5 35.8-80.3 23.2-12.6-5.7-25.2-16.4-29.7-25.3-1-2-2.1-3.8-2.6-3.9-.9-.4.1-2.2 1.2-2.2.5 0 1.1 1.3 1.4 2.9.7 3.2 6.7 9.9 8.5 9.3.7-.2 1.2.1 1.2.6s1.3 1.5 2.9 2.2c1.6.6 3.9 2.2 5.2 3.6 1.2 1.3 3 2.4 3.9 2.4.8 0 2.4.6 3.5 1.3 2.5 1.7 9 3.3 13.4 3.2 2.5 0 3.8-.7 4.9-2.5 1.1-1.8 1.2-2.1.2-1.3-2.2 2-3.5 1.5-1.6-.6 1-1.1 1.4-2.5 1-3.6-.4-1-.3-1.6.2-1.4.5.3 2.1 1.1 3.6 1.8 2.2 1.1 2.6 1.9 2.1 4.1-.4 2.3-.1 2.9 1.8 3.6 4 1.3 8.3.5 10-1.8 1-1.2 1.5-2.7 1.3-3.2-.2-.6.1-1.8.6-2.6.8-1.3 1.2-1.2 2.5.7.9 1.3 2.3 2.3 3.1 2.3 1.6 0 1.8-1.2.4-2.6-1.2-1.2-.2-5.4 1.4-5.4 1.8-.1 6.8-4.9 6.1-6-.4-.6-.1-1.7.5-2.5 1.7-2.1.5-4.8-1.8-4.1-1.9.6-5.2-2.1-5.6-4.6-.4-2.8-1.7-4-3.2-2.7-1 .8-1.7.9-2.8 0-.7-.6-2.2-1-3.2-1-1.1.1-3.2.1-4.7.1l-2.8-.2 2.1-3c1.2-1.7 1.7-3 1.1-3-.6 0-1.1-.6-1.1-1.4 0-1.1 2.1-2.3 5.2-3 1.7-.3 2-1.8.9-4.5-1.2-2.8-1.4-2.8-3.9-1.5-4.2 2.2-5.8 1.8-5.6-1.3 0-1.5.7-3 1.5-3.4.8-.4 2.7-1.3 4.3-2 3-1.4 5.6-6.1 3.7-6.7-1.8-.6-1.2-1.9 1.1-2.5 1.5-.4 3 .1 4.5 1.5 2 1.9 2.3 1.9 2.9.4.6-1.5.7-1.5 1.9 0 1.1 1.6 1.5 1.5 4.7-.9 1.9-1.5 3.7-2.7 4-2.7.3 0 .8 1.3 1.1 2.9.6 2.8.7 2.8 4.6 1.8 2.3-.6 4.1-1.7 4.1-2.5 0-.7.5-1 1-.7.6.3 1 1.3 1 2.1 0 1.9 2.4 4.4 4.2 4.4.8 0 1.9.5 2.5 1.1.7.7 1.2.1 1.6-2 .7-3.5 2.3-4 3.2-1.1.3 1.1 1.3 2 2.1 2s1.2.4.9 1c-.3.5-.1 1 .4 1 1.6 0 1.3-1.6-.4-3.4-2.1-2.1-1.9-2.6 1.5-3.7 1.7-.6 3-1.7 3-2.5 0-1.9 1.3-1.8 4.1.5zm-60.4.7c-.3.3-1.2.4-1.9.1-.8-.3-.5-.6.6-.6 1.1-.1 1.7.2 1.3.5zM54 64c0 .5-.4 1-1 1-.5 0-1-.5-1-1 0-.6.5-1 1-1 .6 0 1 .4 1 1zm-2.6 7.5c.3.8 1.2 1.5 2 1.5.7 0 1.6.7 2 1.5.3.9 0 1.5-1 1.5-1.1 0-1.3.6-.9 2 .3 1.1.2 2-.3 2-1.5 0-2.4 3.2-1.2 4.4.6.6 3.6 1.2 6.8 1.3 4 .2 6 .7 6.9 2 .7.9 1.3 1.3 1.3.8 0-.4.8-.1 1.8.8 1.7 1.5 2.1 1.7 4.2 1.7.6 0 1 .4 1 1 0 1.1-8.6 1.3-11 .2-.8-.4-1.5-1.4-1.5-2.2 0-.9-1.1-1.6-2.8-1.8-1.8-.2-2.6.1-2.5.9.2.8-1.6 1.3-5.4 1.6-3.8.3-5.8.1-5.8-.6 0-.6.5-1.1 1-1.1.6 0 1-.5 1-1 0-.6-.9-1-2-1s-2 .5-2 1.1c0 .6-1.4-.3-3.1-2-3.7-3.7-3.3-5.2 1.9-8.5 2.1-1.3 4.6-3.6 5.5-5 2-2.9 3.2-3.3 4.1-1.1zM3.7 77.2c-.3.8-.6.5-.6-.6-.1-1.1.2-1.7.5-1.3.3.3.4 1.2.1 1.9zm18.7 8.1c.8 1.2.7 2-.2 2.9-1.4 1.4-1.8 1.1-2.8-2.6-.5-2.1-.4-2.8.6-2.4.8.2 1.8 1.2 2.4 2.1zm18.8 7.4c2.8 3.3 2.9 5.1.3 5.6-3.8.7-8.2-4.3-5.8-6.6 1.2-1.3 4-.7 5.5 1zm18.6 7.6c.2 1-.3 1.7-1.2 1.7-1 0-1.6-.9-1.6-2.1 0-2.4 2.3-2.1 2.8.4zm10 2.5c.2 1.2-.2 2.2-.8 2.2-.6 0-.9-.4-.5-.9.3-.5.1-1.2-.5-1.6-1.4-.9-1.2-2.7.3-2.3.6.3 1.3 1.4 1.5 2.6zm6.2.2c0 .5-.4 1-1 1-.5 0-1-.5-1-1 0-.6.5-1 1-1 .6 0 1 .4 1 1zm-6.2 6.8c.2.7-.2 1-1.2.6-.9-.3-1.6-1.1-1.6-1.6 0-1.3 2.3-.5 2.8 1zM49.5 116c.3.5.1 1-.4 1-.6 0-1.1-.5-1.1-1 0-.6.2-1 .4-1 .3 0 .8.4 1.1 1z"/><path d="M11.8 49.5c-2 2.6-2.3 4.5-.9 4.5 1.2 0 4.1-4 4.1-5.7 0-2-1.3-1.5-3.2 1.2zM121.5 57c.3.5 1.1 1 1.6 1 .6 0 .7-.5.4-1-.3-.6-1.1-1-1.6-1-.6 0-.7.4-.4 1zM125 63.6c0 .8.5 1.2 1 .9.6-.4.8-1.1.5-1.6-.9-1.4-1.5-1.1-1.5.7zM82.5 110c-.3.5-.1 1 .4 1 .6 0 1.1-.5 1.1-1 0-.6-.2-1-.4-1-.3 0-.8.4-1.1 1zM34.6 116.8c-.3.6-.1 1.4.5 1.7 1.4.9 2 .2 1-1.4-.6-.8-1.1-.9-1.5-.3z"/></svg>